<svg width="1200" height="628" viewBox="0 0 1200 628" fill="none" xmlns="http://www.w3.org/2000/svg">
<rect width="1200" height="628" fill="#141414"/>
<g style="mix-blend-mode:lighten" filter="url(#filter0_d_604_12096)">
<path d="M594.005 83.7656C595.089 77.3845 604.959 77.4233 606 83.8115C609.665 106.323 614.65 134.565 619.76 156.287C621.478 163.591 623.534 171.53 625.766 179.69C630.787 198.045 647.112 210.632 665.898 213.661C701.661 219.428 725.501 229.77 725.501 241.568C725.501 252.406 705.385 262.013 674.391 267.975C661.874 270.382 650.412 276.957 642.96 287.298L607.807 336.076C604.448 340.737 597.51 340.737 594.151 336.076L559.187 287.564C551.698 277.172 540.163 270.581 527.572 268.224C495.83 262.284 475.142 252.559 475.141 241.568C475.141 229.87 498.577 219.605 533.833 213.81C552.669 210.715 568.994 198.025 573.972 179.596C576.167 171.465 578.198 163.559 579.911 156.287C585.034 134.535 590.183 106.277 594.005 83.7656Z" fill="#1A1A1A"/>
</g>
<path d="M229.82 419.822V470.572H217.85V452.512C214.28 453.282 209.87 454.052 205.6 454.052C194.47 454.052 188.8 448.172 188.8 437.182V419.822H200.77V433.962C200.77 441.312 202.03 443.762 209.31 443.762C211.76 443.762 215.4 443.482 217.85 442.852V419.822H229.82ZM267.629 441.102H255.449V470.572H243.899V441.102H231.719V432.912H267.629V441.102ZM285.633 440.752C281.083 440.752 277.443 443.552 277.443 451.602C277.443 459.512 280.943 462.522 285.633 462.522C290.323 462.522 293.823 459.512 293.823 451.602C293.823 443.552 290.183 440.752 285.633 440.752ZM285.633 431.792C296.063 431.792 305.583 437.952 305.583 451.602C305.583 465.252 296.063 471.482 285.633 471.482C275.203 471.482 265.683 465.252 265.683 451.602C265.683 437.952 275.203 431.792 285.633 431.792ZM367.524 432.912V470.572H356.674V442.922L346.664 470.572H339.454L329.514 442.992V470.572H318.664V432.912H334.484L343.444 457.762L351.914 432.912H367.524ZM389.793 470.572H372.433V432.912H384.053V444.602H389.233C400.433 444.602 405.123 448.662 405.123 457.412C405.123 467.282 400.363 470.572 389.793 470.572ZM384.053 452.372V462.802H388.603C392.453 462.802 394.343 461.192 394.343 457.272C394.343 453.982 392.453 452.372 388.603 452.372H384.053ZM421.573 470.572H409.953V432.912H421.573V470.572ZM465.314 450.342C468.884 451.532 471.334 454.192 471.334 459.022C471.334 467.632 463.634 471.482 453.204 471.482C444.174 471.482 436.404 468.052 434.724 457.132H445.294C445.504 460.422 448.374 462.872 453.694 462.872C457.684 462.872 460.064 461.332 460.064 458.532C460.064 455.802 458.174 454.472 454.324 454.472H448.444V448.102H453.834C456.914 448.102 458.944 446.562 458.944 444.322C458.944 442.082 457.334 440.122 453.134 440.192C449.004 440.262 446.274 442.362 445.784 446.072H435.214C436.684 435.992 444.384 431.792 453.624 431.792C461.674 431.792 470.004 434.802 470.004 442.852C470.004 446.212 468.184 448.872 465.314 450.342ZM510.884 470.572H499.334V455.382H485.474V470.572H473.924V432.912H485.474V447.192H499.334V432.912H510.884V470.572ZM538.409 447.052V445.582C538.409 441.102 536.239 439.562 532.039 439.562C528.329 439.562 525.809 441.452 525.319 445.092H514.539C515.099 438.022 521.819 431.722 533.019 431.722C543.869 431.722 550.029 436.132 549.819 447.542L549.679 455.732V459.652C549.679 463.782 549.959 468.192 550.519 470.572H539.179L539.039 466.022C536.239 470.012 531.759 471.482 526.369 471.482C519.229 471.482 513.349 467.282 513.349 460.422C513.349 451.182 523.779 448.172 538.409 447.052ZM538.689 454.752V453.842C530.639 454.612 525.249 455.522 525.249 459.582C525.249 462.032 527.559 463.642 530.569 463.642C535.189 463.642 538.689 461.682 538.689 454.752ZM579.476 458.742H590.116C586.756 467.632 578.846 471.482 571.356 471.482C559.106 471.482 550.706 464.062 550.706 451.532C550.706 439.492 559.876 431.792 570.866 431.792C583.396 431.792 591.026 441.242 590.256 454.682H562.326C562.676 460.002 566.806 462.522 571.006 462.522C575.416 462.522 578.146 460.982 579.476 458.742ZM570.866 440.612C566.736 440.612 563.096 442.712 562.466 447.682H578.776C578.566 442.922 575.276 440.612 570.866 440.612ZM641.434 432.912V470.572H630.584V442.922L620.574 470.572H613.364L603.424 442.992V470.572H592.574V432.912H608.394L617.354 457.762L625.824 432.912H641.434ZM674.472 440.752C669.922 440.752 666.282 443.552 666.282 451.602C666.282 459.512 669.782 462.522 674.472 462.522C679.162 462.522 682.662 459.512 682.662 451.602C682.662 443.552 679.022 440.752 674.472 440.752ZM674.472 431.792C684.902 431.792 694.422 437.952 694.422 451.602C694.422 465.252 684.902 471.482 674.472 471.482C664.042 471.482 654.522 465.252 654.522 451.602C654.522 437.952 664.042 431.792 674.472 431.792ZM719.963 429.902V438.722H730.953C742.643 438.722 750.833 442.222 750.833 454.262C750.833 466.302 742.643 470.572 730.323 470.572H707.993V419.822H747.333V429.902H719.963ZM719.963 460.492H730.463C735.573 460.492 738.163 458.322 738.163 454.052C738.163 449.782 735.573 447.612 730.463 447.612H719.963V460.492ZM769.88 440.752C765.33 440.752 761.69 443.552 761.69 451.602C761.69 459.512 765.19 462.522 769.88 462.522C774.57 462.522 778.07 459.512 778.07 451.602C778.07 443.552 774.43 440.752 769.88 440.752ZM769.88 431.792C780.31 431.792 789.83 437.952 789.83 451.602C789.83 465.252 780.31 471.482 769.88 471.482C759.45 471.482 749.93 465.252 749.93 451.602C749.93 437.952 759.45 431.792 769.88 431.792ZM826.598 432.912V470.572H815.048V441.102H806.718L806.508 444.672C805.388 463.992 801.048 470.572 790.408 470.572H788.238V462.382H789.288C793.138 462.382 794.818 459.302 795.588 444.672L796.218 432.912H826.598ZM843.035 444.602H850.525C861.725 444.602 866.415 448.662 866.415 457.412C866.415 467.282 861.655 470.572 851.085 470.572H831.485V432.912H843.035V444.602ZM843.035 462.802H849.895C853.745 462.802 855.635 461.192 855.635 457.272C855.635 453.982 853.745 452.372 849.895 452.372H843.035V462.802ZM921.776 432.912V470.572H868.506V432.912H880.056V462.382H889.366V432.912H900.916V462.382H910.226V432.912H921.776ZM943.939 440.752C939.389 440.752 935.749 443.552 935.749 451.602C935.749 459.512 939.249 462.522 943.939 462.522C948.629 462.522 952.129 459.512 952.129 451.602C952.129 443.552 948.489 440.752 943.939 440.752ZM943.939 431.792C954.369 431.792 963.889 437.952 963.889 451.602C963.889 465.252 954.369 471.482 943.939 471.482C933.509 471.482 923.989 465.252 923.989 451.602C923.989 437.952 933.509 431.792 943.939 431.792ZM1014.99 432.912V470.572H1004.14V442.922L994.131 470.572H986.921L976.981 442.992V470.572H966.131V432.912H981.951L990.911 457.762L999.381 432.912H1014.99ZM86.9576 540.572V489.822H109.078C120.208 489.822 128.468 492.342 128.468 502.982C128.468 507.672 126.368 511.102 122.448 513.552C127.208 515.232 130.498 518.802 130.498 524.962C130.498 536.372 122.308 540.572 109.988 540.572H86.9576ZM98.9276 519.012V530.492H110.128C115.238 530.492 117.828 528.322 117.828 524.752C117.828 521.182 115.238 519.012 110.128 519.012H98.9276ZM98.9276 499.902V510.122H109.498C113.698 510.122 116.008 508.092 116.008 504.942C116.008 501.792 113.698 499.902 109.498 499.902H98.9276ZM161.127 520.342C164.697 521.532 167.147 524.192 167.147 529.022C167.147 537.632 159.447 541.482 149.017 541.482C139.987 541.482 132.217 538.052 130.537 527.132H141.107C141.317 530.422 144.187 532.872 149.507 532.872C153.497 532.872 155.877 531.332 155.877 528.532C155.877 525.802 153.987 524.472 150.137 524.472H144.257V518.102H149.647C152.727 518.102 154.757 516.562 154.757 514.322C154.757 512.082 153.147 510.122 148.947 510.192C144.817 510.262 142.087 512.362 141.597 516.072H131.027C132.497 505.992 140.197 501.792 149.437 501.792C157.487 501.792 165.817 504.802 165.817 512.852C165.817 516.212 163.997 518.872 161.127 520.342ZM181.288 502.912V508.022C183.738 503.892 188.778 502.072 192.838 502.072C202.568 502.072 209.428 509.422 209.428 521.742C209.428 534.062 202.568 541.482 192.838 541.482C188.778 541.482 183.738 539.662 181.288 535.532V552.822H169.738V502.912H181.288ZM189.058 511.032C184.508 511.032 180.728 513.972 180.728 521.742C180.728 529.512 184.508 532.522 189.058 532.522C193.678 532.522 197.458 528.742 197.458 521.742C197.458 514.742 193.678 511.032 189.058 511.032ZM228.835 540.572H211.475V502.912H223.095V514.602H228.275C239.475 514.602 244.165 518.662 244.165 527.412C244.165 537.282 239.405 540.572 228.835 540.572ZM223.095 522.372V532.802H227.645C231.495 532.802 233.385 531.192 233.385 527.272C233.385 523.982 231.495 522.372 227.645 522.372H223.095ZM260.615 540.572H248.995V502.912H260.615V540.572ZM265.517 502.912H286.307C294.707 502.912 300.797 504.872 300.797 512.782C300.797 516.212 299.187 518.872 296.317 520.342C299.887 521.532 302.337 524.122 302.337 528.812C302.337 537.282 296.177 540.572 287.007 540.572H265.517V502.912ZM277.067 518.102H284.837C287.917 518.102 289.667 516.562 289.667 514.252C289.667 512.082 287.917 510.682 284.837 510.682H277.067V518.102ZM277.067 524.472V532.802H285.327C289.177 532.802 291.067 531.122 291.067 528.672C291.067 525.942 289.177 524.472 285.327 524.472H277.067ZM331.929 528.742H342.569C339.209 537.632 331.299 541.482 323.809 541.482C311.559 541.482 303.159 534.062 303.159 521.532C303.159 509.492 312.329 501.792 323.319 501.792C335.849 501.792 343.479 511.242 342.709 524.682H314.779C315.129 530.002 319.259 532.522 323.459 532.522C327.869 532.522 330.599 530.982 331.929 528.742ZM323.319 510.612C319.189 510.612 315.549 512.712 314.919 517.682H331.229C331.019 512.922 327.729 510.612 323.319 510.612ZM342.812 540.572V528.112H355.762V541.272L348.622 551.632H341.762L347.852 540.572H342.812ZM392.939 517.052V515.582C392.939 511.102 390.769 509.562 386.569 509.562C382.859 509.562 380.339 511.452 379.849 515.092H369.069C369.629 508.022 376.349 501.722 387.549 501.722C398.399 501.722 404.559 506.132 404.349 517.542L404.209 525.732V529.652C404.209 533.782 404.489 538.192 405.049 540.572H393.709L393.569 536.022C390.769 540.012 386.289 541.482 380.899 541.482C373.759 541.482 367.879 537.282 367.879 530.422C367.879 521.182 378.309 518.172 392.939 517.052ZM393.219 524.752V523.842C385.169 524.612 379.779 525.522 379.779 529.582C379.779 532.032 382.089 533.642 385.099 533.642C389.719 533.642 393.219 531.682 393.219 524.752ZM450.725 540.572H439.175V527.132C435.605 528.042 433.225 528.462 429.655 528.462C421.465 528.462 416.635 524.682 416.635 516.282V502.912H428.185V514.392C428.185 517.682 430.005 519.992 434.415 519.992C436.025 519.992 437.285 519.782 439.175 519.292V502.912H450.725V540.572ZM488.029 511.102H475.849V540.572H464.299V511.102H452.119V502.912H488.029V511.102ZM506.033 510.752C501.483 510.752 497.843 513.552 497.843 521.602C497.843 529.512 501.343 532.522 506.033 532.522C510.723 532.522 514.223 529.512 514.223 521.602C514.223 513.552 510.583 510.752 506.033 510.752ZM506.033 501.792C516.463 501.792 525.983 507.952 525.983 521.602C525.983 535.252 516.463 541.482 506.033 541.482C495.603 541.482 486.083 535.252 486.083 521.602C486.083 507.952 495.603 501.792 506.033 501.792ZM556.354 510.752C551.804 510.752 548.164 513.552 548.164 521.602C548.164 529.512 551.664 532.522 556.354 532.522C561.044 532.522 564.544 529.512 564.544 521.602C564.544 513.552 560.904 510.752 556.354 510.752ZM556.354 501.792C566.784 501.792 576.304 507.952 576.304 521.602C576.304 535.252 566.784 541.482 556.354 541.482C545.924 541.482 536.404 535.252 536.404 521.602C536.404 507.952 545.924 501.792 556.354 501.792ZM595.956 501.792C603.796 501.792 612.406 505.362 614.646 516.702H603.866C602.816 512.292 600.086 510.752 596.656 510.752C592.526 510.752 588.466 513.552 588.466 521.602C588.466 529.792 592.526 532.522 596.656 532.522C600.926 532.522 603.516 530.282 604.356 526.712H615.136C612.546 537.912 603.516 541.482 595.956 541.482C583.566 541.482 576.706 533.502 576.706 521.532C576.706 509.562 584.546 501.792 595.956 501.792ZM648.045 511.102H635.865V540.572H624.315V511.102H612.135V502.912H648.045V511.102ZM672.053 517.052V515.582C672.053 511.102 669.883 509.562 665.683 509.562C661.973 509.562 659.453 511.452 658.963 515.092H648.183C648.743 508.022 655.463 501.722 666.663 501.722C677.513 501.722 683.673 506.132 683.463 517.542L683.323 525.732V529.652C683.323 533.782 683.603 538.192 684.163 540.572H672.823L672.683 536.022C669.883 540.012 665.403 541.482 660.013 541.482C652.873 541.482 646.993 537.282 646.993 530.422C646.993 521.182 657.423 518.172 672.053 517.052ZM672.333 524.752V523.842C664.283 524.612 658.893 525.522 658.893 529.582C658.893 532.032 661.203 533.642 664.213 533.642C668.833 533.642 672.333 531.682 672.333 524.752ZM713.12 528.742H723.76C720.4 537.632 712.49 541.482 705 541.482C692.75 541.482 684.35 534.062 684.35 521.532C684.35 509.492 693.52 501.792 704.51 501.792C717.04 501.792 724.67 511.242 723.9 524.682H695.97C696.32 530.002 700.45 532.522 704.65 532.522C709.06 532.522 711.79 530.982 713.12 528.742ZM704.51 510.612C700.38 510.612 696.74 512.712 696.11 517.682H712.42C712.21 512.922 708.92 510.612 704.51 510.612ZM691.14 498.712V489.822H701.5V498.712H691.14ZM706.82 489.822H717.11V498.712H706.82V489.822ZM757.261 511.102H745.081V540.572H733.531V511.102H721.351V502.912H757.261V511.102ZM774.565 501.792C782.405 501.792 791.015 505.362 793.255 516.702H782.475C781.425 512.292 778.695 510.752 775.265 510.752C771.135 510.752 767.075 513.552 767.075 521.602C767.075 529.792 771.135 532.522 775.265 532.522C779.535 532.522 782.125 530.282 782.965 526.712H793.745C791.155 537.912 782.125 541.482 774.565 541.482C762.175 541.482 755.315 533.502 755.315 521.532C755.315 509.562 763.155 501.792 774.565 501.792ZM828.407 502.912V540.572H816.787V528.882H810.767L803.627 540.572H791.307L800.827 525.522C796.907 523.632 793.547 520.482 793.547 515.162C793.547 507.602 798.097 502.912 808.667 502.912H828.407ZM816.787 510.682H810.067C806.217 510.682 804.327 512.852 804.327 516.002C804.327 519.012 806.217 521.112 810.067 521.112H816.787V510.682ZM876.565 511.102H864.385V540.572H852.835V511.102H840.655V502.912H876.565V511.102ZM900.573 517.052V515.582C900.573 511.102 898.403 509.562 894.203 509.562C890.493 509.562 887.973 511.452 887.483 515.092H876.703C877.263 508.022 883.983 501.722 895.183 501.722C906.033 501.722 912.193 506.132 911.983 517.542L911.843 525.732V529.652C911.843 533.782 912.123 538.192 912.683 540.572H901.343L901.203 536.022C898.403 540.012 893.923 541.482 888.533 541.482C881.393 541.482 875.513 537.282 875.513 530.422C875.513 521.182 885.943 518.172 900.573 517.052ZM900.853 524.752V523.842C892.803 524.612 887.413 525.522 887.413 529.582C887.413 532.032 889.723 533.642 892.733 533.642C897.353 533.642 900.853 531.682 900.853 524.752ZM953.33 502.912V540.572H941.99V518.522L926.73 540.572H915.53V502.912H926.87V525.242L942.13 502.912H953.33ZM934.43 498.292C926.24 498.292 922.53 494.022 922.18 489.822H929.74C930.02 491.292 931.42 492.622 934.5 492.622C937.58 492.622 939.05 491.292 939.33 489.822H946.89C946.33 494.022 942.9 498.292 934.43 498.292ZM994.023 540.572H982.473V525.382H968.613V540.572H957.063V502.912H968.613V517.192H982.473V502.912H994.023V540.572ZM1016.23 510.752C1011.68 510.752 1008.04 513.552 1008.04 521.602C1008.04 529.512 1011.54 532.522 1016.23 532.522C1020.92 532.522 1024.42 529.512 1024.42 521.602C1024.42 513.552 1020.78 510.752 1016.23 510.752ZM1016.23 501.792C1026.66 501.792 1036.18 507.952 1036.18 521.602C1036.18 535.252 1026.66 541.482 1016.23 541.482C1005.8 541.482 996.277 535.252 996.277 521.602C996.277 507.952 1005.8 501.792 1016.23 501.792ZM1076.22 502.912V540.572H1064.88V518.522L1049.62 540.572H1038.42V502.912H1049.76V525.242L1065.02 502.912H1076.22ZM1057.32 498.292C1049.13 498.292 1045.42 494.022 1045.07 489.822H1052.63C1052.91 491.292 1054.31 492.622 1057.39 492.622C1060.47 492.622 1061.94 491.292 1062.22 489.822H1069.78C1069.22 494.022 1065.79 498.292 1057.32 498.292ZM1098.22 488.982C1108.3 488.982 1117.68 493.042 1117.68 501.932C1117.68 508.652 1113.48 511.802 1108.09 514.392C1103.12 516.632 1100.67 518.172 1100.67 522.652V524.472H1089.12C1088.91 523.422 1088.91 522.022 1088.91 521.112C1088.91 514.182 1092.55 511.242 1097.31 508.862C1100.74 507.112 1105.85 505.782 1105.85 502.842C1105.85 500.042 1102.84 498.222 1098.08 498.222C1092.2 498.222 1087.86 500.672 1087.86 506.342H1076.66C1076.66 495.282 1085.48 488.982 1098.22 488.982ZM1101.37 540.572H1088.35V528.112H1101.37V540.572Z" fill="#C0C0C0"/>
<defs>
<filter id="filter0_d_604_12096" x="437.791" y="41.6503" width="325.06" height="335.271" filterUnits="userSpaceOnUse" color-interpolation-filters="sRGB">
<feFlood flood-opacity="0" result="BackgroundImageFix"/>
<feColorMatrix in="SourceAlpha" type="matrix" values="0 0 0 0 0 0 0 0 0 0 0 0 0 0 0 0 0 0 127 0" result="hardAlpha"/>
<feOffset/>
<feGaussianBlur stdDeviation="18.6748"/>
<feComposite in2="hardAlpha" operator="out"/>
<feColorMatrix type="matrix" values="0 0 0 0 0.998257 0 0 0 0 0.998257 0 0 0 0 0.998257 0 0 0 0.5 0"/>
<feBlend mode="normal" in2="BackgroundImageFix" result="effect1_dropShadow_604_12096"/>
<feBlend mode="normal" in="SourceGraphic" in2="effect1_dropShadow_604_12096" result="shape"/>
</filter>
</defs>
</svg>
