<svg width="37" height="40" viewBox="0 0 37 40" fill="none" xmlns="http://www.w3.org/2000/svg">
<path fill-rule="evenodd" clip-rule="evenodd" d="M18.8052 0.498188C18.7005 -0.16317 17.6931 -0.167302 17.5835 0.493273C17.0156 3.91783 16.1358 8.90301 15.2613 12.5947V12.5947C14.1399 17.3282 9.86368 20.3814 5.16429 21.6381C1.96831 22.4928 0 23.6598 0 24.9463C0 26.2313 1.96336 27.3969 5.15222 28.2513C8.52017 29.1537 11.689 30.8514 13.7354 33.6744L17.6232 39.0376C17.9711 39.5175 18.6863 39.5175 19.0343 39.0376L22.9561 33.6275C24.9929 30.8177 28.1442 29.1268 31.4904 28.2068C34.5825 27.3567 36.4787 26.2091 36.4787 24.9463C36.4787 23.6434 34.4598 22.4631 31.1915 21.6056C26.4844 20.3706 22.188 17.3302 21.0675 12.5947V12.5947C20.1951 8.90758 19.3476 3.92373 18.8052 0.498188Z" fill="#C0C0C0"/>
</svg>
