<svg width="344" height="43" viewBox="0 0 344 43" fill="none" xmlns="http://www.w3.org/2000/svg">
<path d="M329.904 24.4262H326.337L337.373 2.52124H343.616L330.127 28.0492L330.963 23.2557V40.4787H325.389V23.2557L326.17 28.0492L312.792 2.52124H318.979L329.904 24.4262Z" fill="white"/>
<path d="M294.774 41.0363C290.947 41.0363 287.584 40.2002 284.686 38.5281C281.825 36.8188 279.595 34.4964 277.997 31.5609C276.4 28.5882 275.601 25.2439 275.601 21.528C275.601 18.704 276.084 16.1029 277.05 13.7247C278.016 11.3466 279.354 9.28428 281.063 7.53783C282.809 5.79138 284.835 4.43509 287.138 3.46896C289.479 2.50284 292.025 2.01978 294.774 2.01978C299.085 2.01978 302.615 2.91158 305.365 4.6952C308.114 6.44165 310.362 8.80122 312.109 11.7739L306.647 13.3903C304.937 11.0493 303.098 9.47008 301.129 8.65259C299.196 7.79794 297.078 7.37061 294.774 7.37061C292.21 7.37061 289.907 7.98373 287.863 9.20996C285.856 10.4362 284.259 12.1083 283.069 14.2264C281.88 16.3444 281.286 18.7783 281.286 21.528C281.286 24.2406 281.88 26.6745 283.069 28.8297C284.259 30.9477 285.856 32.6199 287.863 33.8461C289.907 35.0723 292.21 35.6855 294.774 35.6855C297.227 35.6855 299.456 35.1467 301.463 34.0691C303.507 32.9543 305.123 31.4494 306.312 29.5543C307.501 27.6592 308.096 25.504 308.096 23.0887L308.932 26.3215H294.44V21.0821H313.056C313.168 21.4537 313.242 21.881 313.279 22.3641C313.354 22.8472 313.391 23.3117 313.391 23.7576C313.391 26.1357 312.926 28.3652 311.997 30.4461C311.068 32.527 309.749 34.3663 308.04 35.9642C306.368 37.562 304.399 38.8068 302.132 39.6986C299.902 40.5904 297.45 41.0363 294.774 41.0363Z" fill="white"/>
<path d="M232.436 21.528C232.436 18.704 232.919 16.1029 233.886 13.7247C234.889 11.3466 236.282 9.28428 238.066 7.53783C239.85 5.79138 241.93 4.43509 244.309 3.46896C246.724 2.50284 249.344 2.01978 252.168 2.01978C254.955 2.01978 257.537 2.50284 259.915 3.46896C262.293 4.43509 264.356 5.79138 266.102 7.53783C267.886 9.28428 269.261 11.3466 270.227 13.7247C271.23 16.1029 271.732 18.704 271.732 21.528C271.732 24.3149 271.23 26.8975 270.227 29.2756C269.261 31.6538 267.886 33.7346 266.102 35.5182C264.356 37.2647 262.293 38.621 259.915 39.5871C257.537 40.5532 254.955 41.0363 252.168 41.0363C249.344 41.0363 246.724 40.5532 244.309 39.5871C241.93 38.621 239.85 37.2647 238.066 35.5182C236.282 33.7346 234.889 31.6538 233.886 29.2756C232.919 26.8975 232.436 24.3149 232.436 21.528ZM238.122 21.528C238.122 24.2406 238.735 26.6745 239.961 28.8297C241.187 30.9477 242.859 32.6199 244.977 33.8461C247.095 35.0723 249.492 35.6855 252.168 35.6855C254.843 35.6855 257.221 35.0723 259.302 33.8461C261.383 32.6199 263.018 30.9477 264.207 28.8297C265.433 26.6745 266.046 24.2406 266.046 21.528C266.046 18.7783 265.433 16.3444 264.207 14.2264C263.018 12.1083 261.383 10.4362 259.302 9.20996C257.221 7.98373 254.843 7.37061 252.168 7.37061C249.492 7.37061 247.095 7.98373 244.977 9.20996C242.859 10.4362 241.187 12.1083 239.961 14.2264C238.735 16.3444 238.122 18.7783 238.122 21.528Z" fill="white"/>
<path d="M227.797 43L207 35.9462L219.192 0L224.47 1.79031L213.711 33.5137L213.328 32.5599L229.48 38.0383L227.797 43Z" fill="white"/>
<path d="M163.417 21.528C163.417 18.704 163.9 16.1029 164.866 13.7247C165.87 11.3466 167.263 9.28428 169.047 7.53783C170.83 5.79138 172.911 4.43509 175.289 3.46896C177.705 2.50284 180.324 2.01978 183.148 2.01978C185.935 2.01978 188.518 2.50284 190.896 3.46896C193.274 4.43509 195.336 5.79138 197.083 7.53783C198.866 9.28428 200.241 11.3466 201.207 13.7247C202.211 16.1029 202.712 18.704 202.712 21.528C202.712 24.3149 202.211 26.8975 201.207 29.2756C200.241 31.6538 198.866 33.7346 197.083 35.5182C195.336 37.2647 193.274 38.621 190.896 39.5871C188.518 40.5532 185.935 41.0363 183.148 41.0363C180.324 41.0363 177.705 40.5532 175.289 39.5871C172.911 38.621 170.83 37.2647 169.047 35.5182C167.263 33.7346 165.87 31.6538 164.866 29.2756C163.9 26.8975 163.417 24.3149 163.417 21.528ZM169.102 21.528C169.102 24.2406 169.715 26.6745 170.942 28.8297C172.168 30.9477 173.84 32.6199 175.958 33.8461C178.076 35.0723 180.473 35.6855 183.148 35.6855C185.824 35.6855 188.202 35.0723 190.283 33.8461C192.364 32.6199 193.999 30.9477 195.188 28.8297C196.414 26.6745 197.027 24.2406 197.027 21.528C197.027 18.7783 196.414 16.3444 195.188 14.2264C193.999 12.1083 192.364 10.4362 190.283 9.20996C188.202 7.98373 185.824 7.37061 183.148 7.37061C180.473 7.37061 178.076 7.98373 175.958 9.20996C173.84 10.4362 172.168 12.1083 170.942 14.2264C169.715 16.3444 169.102 18.7783 169.102 21.528Z" fill="white"/>
<path d="M114.872 40.4787L121.839 2.52124H126.8L137.223 30.223H137.39L147.813 2.52124H152.774L159.741 40.4787H153.888L150.823 22.4197C150.377 19.8186 150.005 17.2546 149.708 14.7278C149.411 12.1639 149.225 9.59995 149.151 7.03601H150.544C149.875 10.1202 149.169 12.8328 148.426 15.1737C147.72 17.5147 146.903 19.93 145.974 22.4197L139.452 39.8656H135.161L128.639 22.4197C127.71 19.8929 126.874 17.4776 126.131 15.1737C125.425 12.8328 124.738 10.1202 124.069 7.03601H125.462C125.388 9.59995 125.202 12.1639 124.905 14.7278C124.608 17.2546 124.236 19.8186 123.79 22.4197L120.724 40.4787H114.872Z" fill="white"/>
<path d="M98.3909 41.315C96.4215 41.315 94.5079 41.0177 92.6499 40.4232C90.8292 39.8286 89.157 38.8625 87.6335 37.5248C86.11 36.1499 84.828 34.292 83.7876 31.951L88.4139 29.3313C89.7144 31.6723 91.145 33.3631 92.7057 34.4035C94.2663 35.4439 96.2172 35.9642 98.5581 35.9642C100.825 35.9642 102.534 35.4625 103.686 34.4592C104.875 33.4559 105.47 32.0811 105.47 30.3346C105.47 29.2942 105.21 28.3838 104.689 27.6035C104.206 26.8231 103.333 26.0985 102.07 25.4297C100.806 24.7608 99.0226 24.1477 96.7188 23.5903C93.8204 22.8472 91.5537 21.9368 89.9188 20.8592C88.321 19.7444 87.2062 18.481 86.5745 17.069C85.9428 15.6198 85.627 14.0592 85.627 12.387C85.627 10.3061 86.11 8.50395 87.0761 6.98045C88.0423 5.41979 89.4357 4.21214 91.2565 3.35749C93.0772 2.46568 95.2324 2.01978 97.7221 2.01978C100.695 2.01978 103.147 2.59573 105.079 3.74765C107.012 4.86241 108.647 6.40449 109.984 8.3739L105.302 11.3837C104.151 9.97172 102.943 8.96843 101.679 8.3739C100.453 7.7422 99.1341 7.42635 97.7221 7.42635C95.5669 7.42635 93.9133 7.85368 92.7614 8.70832C91.6466 9.56297 91.0893 10.7892 91.0893 12.387C91.0893 13.7619 91.6095 14.951 92.6499 15.9543C93.7275 16.9575 95.8084 17.8308 98.8926 18.5739C102.014 19.3543 104.448 20.2832 106.194 21.3608C107.978 22.4013 109.223 23.6647 109.929 25.151C110.672 26.6002 111.043 28.3466 111.043 30.3904C111.043 32.4341 110.523 34.2734 109.483 35.9084C108.442 37.5434 106.975 38.8625 105.079 39.8658C103.184 40.8319 100.955 41.315 98.3909 41.315Z" fill="white"/>
<path d="M40.4563 21.528C40.4563 18.704 40.9394 16.1029 41.9055 13.7247C42.9088 11.3466 44.3022 9.28428 46.0858 7.53783C47.8694 5.79138 49.9503 4.43509 52.3285 3.46896C54.7438 2.50284 57.3635 2.01978 60.1875 2.01978C62.9744 2.01978 65.5569 2.50284 67.9351 3.46896C70.3132 4.43509 72.3755 5.79138 74.122 7.53783C75.9056 9.28428 77.2805 11.3466 78.2466 13.7247C79.2499 16.1029 79.7515 18.704 79.7515 21.528C79.7515 24.3149 79.2499 26.8975 78.2466 29.2756C77.2805 31.6538 75.9056 33.7346 74.122 35.5182C72.3755 37.2647 70.3132 38.621 67.9351 39.5871C65.5569 40.5532 62.9744 41.0363 60.1875 41.0363C57.3635 41.0363 54.7438 40.5532 52.3285 39.5871C49.9503 38.621 47.8694 37.2647 46.0858 35.5182C44.3022 33.7346 42.9088 31.6538 41.9055 29.2756C40.9394 26.8975 40.4563 24.3149 40.4563 21.528ZM46.1416 21.528C46.1416 24.2406 46.7547 26.6745 47.9809 28.8297C49.2071 30.9477 50.8793 32.6199 52.9973 33.8461C55.1154 35.0723 57.5121 35.6855 60.1875 35.6855C62.8629 35.6855 65.2411 35.0723 67.322 33.8461C69.4028 32.6199 71.0378 30.9477 72.2269 28.8297C73.4531 26.6745 74.0663 24.2406 74.0663 21.528C74.0663 18.7783 73.4531 16.3444 72.2269 14.2264C71.0378 12.1083 69.4028 10.4362 67.322 9.20996C65.2411 7.98373 62.8629 7.37061 60.1875 7.37061C57.5121 7.37061 55.1154 7.98373 52.9973 9.20996C50.8793 10.4362 49.2071 12.1083 47.9809 14.2264C46.7547 16.3444 46.1416 18.7783 46.1416 21.528Z" fill="white"/>
<path d="M20.0584 41.0363C16.231 41.0363 12.8682 40.2002 9.9698 38.5281C7.10859 36.8188 4.87907 34.4964 3.28125 31.5609C1.68343 28.5882 0.884521 25.2439 0.884521 21.528C0.884521 18.704 1.36758 16.1029 2.33371 13.7247C3.29983 11.3466 4.63754 9.28428 6.34684 7.53783C8.09329 5.79138 10.1184 4.43509 12.4223 3.46896C14.7633 2.50284 17.3086 2.01978 20.0584 2.01978C24.3688 2.01978 27.8988 2.91158 30.6486 4.6952C33.3983 6.44165 35.6464 8.80122 37.3928 11.7739L31.9305 13.3903C30.2212 11.0493 28.3819 9.47008 26.4125 8.65259C24.4802 7.79794 22.3622 7.37061 20.0584 7.37061C17.4944 7.37061 15.1906 7.98373 13.1469 9.20996C11.1403 10.4362 9.54247 12.1083 8.3534 14.2264C7.16432 16.3444 6.56979 18.7783 6.56979 21.528C6.56979 24.2406 7.16432 26.6745 8.3534 28.8297C9.54247 30.9477 11.1403 32.6199 13.1469 33.8461C15.1906 35.0723 17.4944 35.6855 20.0584 35.6855C22.3622 35.6855 24.4802 35.2767 26.4125 34.4592C28.3819 33.6046 30.2212 32.0068 31.9305 29.6658L37.3928 31.2822C35.6464 34.2549 33.3983 36.633 30.6486 38.4166C27.8988 40.1631 24.3688 41.0363 20.0584 41.0363Z" fill="white"/>
<path d="M186.82 23.8033C186.82 27.9862 183.429 31.3771 179.246 31.3771C175.063 31.3771 171.672 27.9862 171.672 23.8033C171.672 19.6204 175.063 16.2295 179.246 16.2295C183.429 16.2295 186.82 19.6204 186.82 23.8033Z" fill="white"/>
<path d="M256.066 23.8033C256.066 27.9862 252.675 31.3771 248.492 31.3771C244.309 31.3771 240.918 27.9862 240.918 23.8033C240.918 19.6204 244.309 16.2295 248.492 16.2295C252.675 16.2295 256.066 19.6204 256.066 23.8033Z" fill="white"/>
</svg>
