<svg width="51" height="54" viewBox="0 0 51 54" fill="none" xmlns="http://www.w3.org/2000/svg">
<path fill-rule="evenodd" clip-rule="evenodd" d="M26.3562 0.793256C26.1875 -0.259846 24.5751 -0.266379 24.3989 0.785491C23.6061 5.5181 22.444 12.0151 21.2883 16.8932C20.9819 18.1868 20.6254 19.5798 20.24 21.0156C19.1444 25.0968 15.5201 27.8905 11.3565 28.612C4.51058 29.7984 0 31.8248 0 34.1251C0 36.3056 4.05231 38.2397 10.3046 39.4458C13.0846 39.9821 15.6373 41.429 17.299 43.7213L24.2639 53.3293C24.9105 54.2212 26.2395 54.2212 26.8861 53.3293L33.8901 43.6673C35.5438 41.3862 38.0804 39.943 40.8441 39.3957C46.9506 38.1865 50.8923 36.2756 50.8923 34.1251C50.8923 31.8019 46.2918 29.7582 39.3314 28.577C35.1779 27.8721 31.5531 25.1009 30.4488 21.0353C30.0571 19.5932 29.6963 18.1934 29.3887 16.8932C28.236 12.0214 27.1145 5.52678 26.3562 0.793256Z" fill="white"/>
</svg>
