<svg width="177" height="176" viewBox="0 0 177 176" fill="none" xmlns="http://www.w3.org/2000/svg">
<path d="M88.4297 13.1397C101.415 31.5738 126.849 80.3117 124.699 127.791M88.4297 13.1397C111.714 21.2327 158.82 52.2559 160.969 111.605M88.4297 13.1397C114.848 12.2405 169.298 26.3583 175.746 90.0233M88.4297 13.1397C105.624 5.58621 126.043 10.8917 134.103 14.4886M88.4297 13.1397V1C94.1801 1 99.5875 1.58384 104.55 2.52837M88.4297 13.1397C91.5641 9.66244 99.1763 2.672 104.55 2.52837M88.4297 13.1397V131.837M124.699 127.791C123.356 158.814 116.639 169.605 111.266 172.302M124.699 127.791C140.819 125.633 155.596 116.101 160.969 111.605M124.699 127.791C117.087 129.14 99.1763 131.837 88.4297 131.837M111.266 172.302C106.968 174.46 94.2507 175 88.4297 175V131.837M111.266 172.302C122.013 169.605 139.476 160.163 147.536 152.07M160.969 111.605C160.969 125.093 155.596 143.977 147.536 152.07M160.969 111.605C171.716 106.209 175.298 94.9691 175.746 90.0233M147.536 152.07C169.029 133.186 177.089 103.512 175.746 90.0233M175.746 90.0233C175.746 72.0389 167.417 31.7537 134.103 14.4886M134.103 14.4886C129.765 11.138 119.061 5.2907 104.55 2.52837" stroke="white" stroke-width="0.581292"/>
<path d="M88.5703 13.1397C75.5849 31.5738 50.1513 80.3117 52.3006 127.791M88.5703 13.1397C65.2861 21.2327 18.1803 52.2559 16.031 111.605M88.5703 13.1397C62.1517 12.2405 7.70239 26.3583 1.25445 90.0233M88.5703 13.1397C71.3758 5.58621 50.9573 10.8917 42.8974 14.4886M88.5703 13.1397V1C82.8199 1 77.4125 1.58384 72.4505 2.52837M88.5703 13.1397C85.4359 9.66244 77.8237 2.672 72.4505 2.52837M88.5703 13.1397V131.837M52.3006 127.791C53.644 158.814 60.3606 169.605 65.7339 172.302M52.3006 127.791C36.1808 125.633 21.4043 116.101 16.031 111.605M52.3006 127.791C59.9128 129.14 77.8237 131.837 88.5703 131.837M65.7339 172.302C70.0325 174.46 82.7493 175 88.5703 175V131.837M65.7339 172.302C54.9873 169.605 37.5241 160.163 29.4642 152.07M16.031 111.605C16.031 125.093 21.4043 143.977 29.4642 152.07M16.031 111.605C5.28441 106.209 1.70222 94.9691 1.25445 90.0233M29.4642 152.07C7.97105 133.186 -0.0888712 103.512 1.25445 90.0233M1.25445 90.0233C1.25445 72.0389 9.58304 31.7537 42.8974 14.4886M42.8974 14.4886C47.2352 11.138 57.9386 5.2907 72.4505 2.52837" stroke="white" stroke-width="0.581292"/>
</svg>
